<svg xmlns="http://www.w3.org/2000/svg" viewBox="0 0 176.08 60"><defs><style>.a{fill:#cb1a14;}</style></defs><title>p_name_03</title><path class="a" d="M29.57,38.4a4.19,4.19,0,0,1-1.85,3.36Q21.52,56,15.18,56.1H15q-7.39,0-10.89-7.2Q1.45,43.44,1.32,34.44v-.6a52.26,52.26,0,0,1,2.9-17.76q3.43-9.6,9.31-10.26a6.86,6.86,0,0,1,.86-.06h.79a9.57,9.57,0,0,1,8.45,4.44q2.18,3.36,3.7,10.68a19.28,19.28,0,0,1,1.12,3.6q0,2-2.71,3.06a3.39,3.39,0,0,1-1.39.24,9.36,9.36,0,0,1-4.22-1.14q-2.71-1.38-2.71-2.88a19.39,19.39,0,0,1,.92-2.34A16.06,16.06,0,0,0,18,18.87a16.43,16.43,0,0,0-.73-2.43q-.86-2.34-2.11-2.64H15q-1.78,0-3,6.66-.59,2.94-1,6.15t-.49,6.81c0,.36,0,.71,0,1s0,.67,0,1a42.18,42.18,0,0,0,.73,7.86q1,5.22,3,5.58h.13q1.12,0,2.71-2.7a23,23,0,0,0,1.45-2.88A31.25,31.25,0,0,0,19.6,40c0-.2-.08-.39-.1-.57a4.61,4.61,0,0,1,0-.57q0-3.54,4.75-3.54a13.36,13.36,0,0,1,2.11.18Q29.57,36.06,29.57,38.4Z" transform="translate(-1.32 -5.76)"/><path class="a" d="M36.83,56a5.1,5.1,0,0,1-3.76-1.38,3.38,3.38,0,0,1-.92-2.34,14.35,14.35,0,0,1,.13-1.56A15,15,0,0,0,32.4,49V26.58a2.52,2.52,0,0,0-.53-1.32A2.48,2.48,0,0,1,31.35,24a1.57,1.57,0,0,1,.26-.84q.86-1.44,5.35-1.44,3.5,0,4,1.5a3.87,3.87,0,0,1,.2,1,1.16,1.16,0,0,1-.53,1q-.53.36-.53.72l.13,2.16,5.68-5.46q1-1,2.08-2a4.12,4.12,0,0,1,2.54-1.14h.66a8,8,0,0,1,3.63.9q2.11,1.08,2.11,2.82a2,2,0,0,1-.07.6q-.33,1.32-2.51,1.74A7.54,7.54,0,0,0,51,26.94L40.19,38.22v9.12A5.19,5.19,0,0,0,41,50a4.3,4.3,0,0,1,.86,2,3.36,3.36,0,0,1-.46,1.62Q40.26,56,36.83,56Z" transform="translate(-1.32 -5.76)"/><path class="a" d="M79.2,46.44Q76.69,56.7,68.84,56.7q-11.55,0-11.55-19.2,0-2.58.2-5.31t.66-5.61a7.12,7.12,0,0,1-.46-2.46,3.79,3.79,0,0,1,1.25-2.94,4.44,4.44,0,0,1,3.1-1,7.71,7.71,0,0,1,3.1.63,2.79,2.79,0,0,1,1.72,1.47c0,.16.08.3.1.42a2.41,2.41,0,0,1,0,.42,8.22,8.22,0,0,1-.73,2.52,7.46,7.46,0,0,0-.59,2.46v.3A43.28,43.28,0,0,0,65,36.84q0,2.58.2,4.71t.53,3.87q.86,4,2.57,4,2.77,0,3.63-8.52.26-2.1.36-5.49t.1-8.07a11.05,11.05,0,0,0-.2-1.74,11,11,0,0,1-.2-1.68,2,2,0,0,1,1.19-2A5.21,5.21,0,0,1,75,21.6a10.23,10.23,0,0,1,4,.84,3.8,3.8,0,0,1,2.44,2.7v.3a3.54,3.54,0,0,1-.4,1.62,8.45,8.45,0,0,0-.79,2Q80.32,41.46,79.2,46.44Z" transform="translate(-1.32 -5.76)"/><path class="a" d="M94.44,53.34a3.78,3.78,0,0,1-1.29,3.12,4.32,4.32,0,0,1-2.61.9A7.84,7.84,0,0,1,85.47,55q-.73-.6-.86-9.18v.9s.07-6.76.07-20.28A11.19,11.19,0,0,0,84.54,25a10.68,10.68,0,0,1-.13-1.35,3,3,0,0,1,.66-2,2.9,2.9,0,0,1,2.51-1.08,7.86,7.86,0,0,1,3.7,1,5.3,5.3,0,0,1,2.38,1.86,2.71,2.71,0,0,1,.26,1.2,4.23,4.23,0,0,1-.53,1.68,4.31,4.31,0,0,0-.53,1.8v8.28A72,72,0,0,1,99.13,25.8q3.56-4.14,8-4.14h.53q2.84.18,4,4.8a45.33,45.33,0,0,1,1,10.32v10.8a5.31,5.31,0,0,0,.92,1.5,2,2,0,0,1,.4,1.2v.3a3,3,0,0,1-1.91,2.25,8.42,8.42,0,0,1-4,.93q-3.24,0-4.42-1.86.07-2.1.1-4t0-3.48q0-11.1-1.32-11.28h-.07q-1.65,0-8,16.56Z" transform="translate(-1.32 -5.76)"/><path class="a" d="M126.22,51.81a3.39,3.39,0,0,1,.36,1.23,2.19,2.19,0,0,1-.73,1.38A6.65,6.65,0,0,1,121.11,56q-3,0-3.83-1.86a3,3,0,0,1-.26-1.32v-.42q.13-.78.2-1.29a6.76,6.76,0,0,0,.07-.81V10.44q0-.54.07-1.23t.2-1.59q.59-1.32,3.63-1.32,4,0,5.08,1.32a2.4,2.4,0,0,1,.59,1.56,7.05,7.05,0,0,1-.53,2,6.46,6.46,0,0,0-.46,2.16q-.07.9-.07,2.58V25.8q0,3.18.07,7.2l9.5-8.46a16.41,16.41,0,0,0,2-2.58,3.29,3.29,0,0,1,2.18-1.44,4.27,4.27,0,0,1,.92-.12,6.8,6.8,0,0,1,3.89,1.32q2,1.32,2,2.82a1.79,1.79,0,0,1-.36,1,6.9,6.9,0,0,1-1,1.11q-.59.57-1.29,1.14l-1.35,1.11-11,10.32,11.75,7.68a12.84,12.84,0,0,0,2.64,1,2.63,2.63,0,0,1,1.72,1.92,4.21,4.21,0,0,1,.07.84q0,3.6-4.42,4.92a5.26,5.26,0,0,1-1.52.24,3,3,0,0,1-2.18-1A15.05,15.05,0,0,0,137.74,53l-11.88-7.56v5A3.45,3.45,0,0,0,126.22,51.81Z" transform="translate(-1.32 -5.76)"/><path class="a" d="M154.63,63.18a2.56,2.56,0,0,1-.26-1.14,2.42,2.42,0,0,1,.53-1.35,4.36,4.36,0,0,0,.66-1.23l1.58-7.56-9.5-24.84q-.13-.24-.36-.72t-.69-1.26a3.51,3.51,0,0,1-.66-1.86,2.41,2.41,0,0,1,0-.42c0-.12.06-.26.1-.42q.66-2.16,4.55-2.16a8.23,8.23,0,0,1,3.76.72,3.94,3.94,0,0,1,1.91,3.18q.13,1.86.26,2.88t.2,1.26l4.36,12.48,6.73-15.48q.07-.18.59-2.64a2.58,2.58,0,0,1,1.39-2,3.11,3.11,0,0,1,1.52-.36,6.51,6.51,0,0,1,3.83,1.32,4.72,4.72,0,0,1,2.18,3,.88.88,0,0,0,0,.24.91.91,0,0,1,0,.24,4,4,0,0,1-.73,2.1q-.73,1.14-1.12,1.74t-.46.72q-1.39,3.06-3.5,7.83L166.51,48.9A61.52,61.52,0,0,0,164.37,55a35.87,35.87,0,0,0-1.15,5.43,5.25,5.25,0,0,0-.13,1.14c0,.2,0,.42,0,.66s0,.46,0,.66a3.61,3.61,0,0,1-.13,1q-.73,1.92-3.5,1.92Q155.69,65.76,154.63,63.18Z" transform="translate(-1.32 -5.76)"/></svg>