<svg xmlns="http://www.w3.org/2000/svg" viewBox="0 0 346.63 63"><defs><style>.a{fill:#cb1a14;}</style></defs><title>p_name_04</title><path class="a" d="M5.54,47.76q-4.95-2.94-4.95-5,0-1,1.39-1.68a11.13,11.13,0,0,1,5-1.32q4.88,0,6.53,5.28.4.72.79,1.5A10.14,10.14,0,0,0,15.11,48a4.34,4.34,0,0,0,1,1,2.19,2.19,0,0,0,1.29.39q3.89,0,3.89-5,0-4.5-1.78-6.06a36.6,36.6,0,0,0-6.34-2.76,14.24,14.24,0,0,1-7.13-5.76A14.67,14.67,0,0,1,3.56,22v-.36A18.72,18.72,0,0,1,7.13,10.5Q11,5.1,16.63,5.1q6.53,0,9.64,4.8a15.27,15.27,0,0,1,2.24,7.44,14.22,14.22,0,0,1,.73,4.14,5.73,5.73,0,0,1-.33,2A3.84,3.84,0,0,1,25,25.68a6.15,6.15,0,0,1-4-1.44,6.89,6.89,0,0,1-2.44-4.38,1.43,1.43,0,0,1-.07-.48A2.46,2.46,0,0,1,19,17.94a5.29,5.29,0,0,0,.66-1.08.34.34,0,0,0-.13-.24,2,2,0,0,0,.07-.6q0-1.68-2.11-1.68h-.2q-2.18.06-3.5,2.7a10.7,10.7,0,0,0-1,4.62v.48q.2,5.1,7.39,8.16Q25.94,32.76,28,35q3.1,3.36,3.1,9.42a11.68,11.68,0,0,1-3.3,8.22,10.59,10.59,0,0,1-8.05,3.54Q10.1,56.22,5.54,47.76Z" transform="translate(-0.59 -4.56)"/><path class="a" d="M44,53.34a3.78,3.78,0,0,1-1.29,3.12,4.32,4.32,0,0,1-2.61.9A7.84,7.84,0,0,1,35,55q-.73-.6-.86-9.18v.9s.07-6.76.07-20.28A11.19,11.19,0,0,0,34.12,25,10.68,10.68,0,0,1,34,23.64a3,3,0,0,1,.66-2,2.9,2.9,0,0,1,2.51-1.08,7.86,7.86,0,0,1,3.7,1,5.3,5.3,0,0,1,2.38,1.86,2.71,2.71,0,0,1,.26,1.2A4.23,4.23,0,0,1,43,26.34a4.31,4.31,0,0,0-.53,1.8v8.28A72,72,0,0,1,48.71,25.8q3.56-4.14,8-4.14h.53q2.84.18,4,4.8a45.33,45.33,0,0,1,1,10.32v10.8a5.31,5.31,0,0,0,.92,1.5,2,2,0,0,1,.4,1.2v.3a3,3,0,0,1-1.91,2.25,8.42,8.42,0,0,1-4,.93q-3.24,0-4.42-1.86.07-2.1.1-4t0-3.48q0-11.1-1.32-11.28H52q-1.65,0-8,16.56Z" transform="translate(-0.59 -4.56)"/><path class="a" d="M88.77,52.38a31.11,31.11,0,0,1-1.06-4.68A15.7,15.7,0,0,1,82,53.94,15.43,15.43,0,0,1,73.32,57q-5.81,0-7.79-6.3A11.78,11.78,0,0,1,65,47.4q0-4.32,4.16-7.56a34.41,34.41,0,0,1,8.78-4.68q3.37-1.38,5.31-2.25a23.89,23.89,0,0,0,2.61-1.29,7,7,0,0,0,.26-2q0-1.86-1.19-2.16a7.51,7.51,0,0,0-2.31-.36q-3,0-7.46,2.7a12.16,12.16,0,0,0-2.24,2,3.43,3.43,0,0,1-2.38,1.32h-.4a3.91,3.91,0,0,1-2.87-1.23,3.85,3.85,0,0,1-1.22-2.79,3.22,3.22,0,0,1,.53-1.74q1.25-1.86,6.73-4a38.16,38.16,0,0,1,13.73-2.52,6.05,6.05,0,0,1,6.07,3.84q1.12,2.64,1.58,9.66.33,4.32.66,7.44a43,43,0,0,0,.79,5.1,3.9,3.9,0,0,0,1.12,2,3.57,3.57,0,0,1,1,2.16,2,2,0,0,1,0,.36c0,.12-.06.26-.1.42Q97.35,55,93.85,55a5.67,5.67,0,0,1-2.71-.6A5.14,5.14,0,0,1,88.77,52.38Zm-14.32-8.1A3.64,3.64,0,0,0,72.8,47,2.89,2.89,0,0,0,73.56,49a2.39,2.39,0,0,0,1.88.87q2.77,0,6.07-3.42a21.35,21.35,0,0,0,5.15-9.3q-2.44,1.08-5,2.22a23.64,23.64,0,0,0-2.57,1.35,13.26,13.26,0,0,0-2,1.47A32.27,32.27,0,0,0,74.45,44.28Z" transform="translate(-0.59 -4.56)"/><path class="a" d="M110.15,58.92a5.33,5.33,0,0,0,.86,2.46,5.26,5.26,0,0,1,.86,2.28,3,3,0,0,1-.33,1.2q-1.39,2.7-5.41,2.7-3.3,0-4.09-2.16a3.68,3.68,0,0,1-.26-1.38,5.24,5.24,0,0,1,.43-1.77,5.44,5.44,0,0,0,.43-1.89V26.16a3.38,3.38,0,0,0-.53-1.59,3.31,3.31,0,0,1-.53-1.53,2.08,2.08,0,0,1,.26-1q.79-1.68,4.88-1.68,2.57,0,3.43,1a1.43,1.43,0,0,1,.33.9,4.39,4.39,0,0,1-.33,1.32,7.2,7.2,0,0,0-.4,1.38q3-4,7.13-4,5.54,0,8,5.64a28.94,28.94,0,0,1,1.91,11.28,23,23,0,0,1-3,11.58q-3.3,5.7-8.12,5.7-2.71,0-5.54-4Zm7.39-14.28a24.61,24.61,0,0,0,.92-6.78q0-2.88-.07-4.68a22.51,22.51,0,0,0-.2-2.58q-.73-3.9-3.3-3.9-1.52,0-2.77,3.78a24.16,24.16,0,0,0-1.19,7.38,20.21,20.21,0,0,0,1.32,6.48q1.25,4,2.64,4Q116.49,48.3,117.54,44.64Z" transform="translate(-0.59 -4.56)"/><path class="a" d="M174.7,39.66Q164.47,56,156.48,56q-4.36,0-8.32-4.44a7.38,7.38,0,0,1-2-5.16,13.72,13.72,0,0,1,2.38-6.9q.66-1.08,1.88-2.73t2.94-3.93a3.83,3.83,0,0,1-.79.06,10,10,0,0,1-2.77-.42q-3.1-.84-3.56-3.12a1.65,1.65,0,0,1-.07-.54q0-2.1,2.84-6.84a57.71,57.71,0,0,1,7.39-9.84q4.55-4.86,7.26-4.86,3.56,0,6.73,4.68a11.08,11.08,0,0,1,2,6.18,3.16,3.16,0,0,1-.4,1.74A3.38,3.38,0,0,1,169,21a4.39,4.39,0,0,1-2.64-.72,5.84,5.84,0,0,1-1.72-2.94q-.59-1.8-1.39-1.8-1.32,0-5.08,5t-3.7,6.3q0,.6,1.32.6t4.75-1.8q3.23-1.8,4.29-1.8h.13a4.57,4.57,0,0,1,2.71.84,2.65,2.65,0,0,1,1.19,2.28,6.16,6.16,0,0,1-1.65,3.72,8.36,8.36,0,0,1-1.78.9,4,4,0,0,0-1.91,1.38,19,19,0,0,0-6.34,7q-2.9,4.92-2.9,7.8,0,2.16,1.85,2.16t4.82-2.58a14.05,14.05,0,0,0,3.89-5.16,1.74,1.74,0,0,1-.59.12h-.53a4,4,0,0,1-2.71-1,3.11,3.11,0,0,1-1.12-2.43,1.39,1.39,0,0,1,.2-.78q.73-1.26,9.9-3.9Q177.73,32,180.11,32a1.52,1.52,0,0,1,.53.06,3.78,3.78,0,0,1,3,3.54,2.49,2.49,0,0,1-.73,1.74,3.08,3.08,0,0,1-1.91.54l-1.52.12a4,4,0,0,0-.92.18A13.38,13.38,0,0,0,174.7,39.66Z" transform="translate(-0.59 -4.56)"/><path class="a" d="M203.48,47.76q-4.95-2.94-4.95-5,0-1,1.39-1.68a11.13,11.13,0,0,1,5-1.32q4.88,0,6.53,5.28.4.72.79,1.5A10.14,10.14,0,0,0,213,48a4.34,4.34,0,0,0,1,1,2.19,2.19,0,0,0,1.29.39q3.89,0,3.89-5,0-4.5-1.78-6.06a36.6,36.6,0,0,0-6.34-2.76A14.24,14.24,0,0,1,204,29.76,14.67,14.67,0,0,1,201.5,22v-.36a18.72,18.72,0,0,1,3.56-11.16q3.83-5.4,9.5-5.4,6.53,0,9.64,4.8a15.27,15.27,0,0,1,2.24,7.44,14.22,14.22,0,0,1,.73,4.14,5.73,5.73,0,0,1-.33,2,3.84,3.84,0,0,1-3.89,2.22,6.15,6.15,0,0,1-4-1.44,6.89,6.89,0,0,1-2.44-4.38,1.43,1.43,0,0,1-.07-.48,2.46,2.46,0,0,1,.46-1.44,5.29,5.29,0,0,0,.66-1.08.34.34,0,0,0-.13-.24,2,2,0,0,0,.07-.6q0-1.68-2.11-1.68h-.2q-2.18.06-3.5,2.7a10.7,10.7,0,0,0-1,4.62v.48q.2,5.1,7.39,8.16Q223.87,32.76,226,35q3.1,3.36,3.1,9.42a11.68,11.68,0,0,1-3.3,8.22,10.59,10.59,0,0,1-8.05,3.54Q208,56.22,203.48,47.76Z" transform="translate(-0.59 -4.56)"/><path class="a" d="M250.66,28.14q-1.12,0-3.7,3.42A37.49,37.49,0,0,0,242.35,40a24,24,0,0,0-1.91,8.64,3.82,3.82,0,0,0,0,.54,4.09,4.09,0,0,1,0,.54,1.48,1.48,0,0,0-.2.72,3.63,3.63,0,0,0,.53,1.53,3.67,3.67,0,0,1,.53,1.59,2,2,0,0,1-.46,1.2q-1.78,2.34-3.56,2.34t-3.56-2.7q-1-1.5-1-17.94,0-3.06.1-9.81t.23-17.49q0-.36-.07-1.11T233,6.9a2.32,2.32,0,0,1,.4-1.08q.66-1.26,3.1-1.26a7.36,7.36,0,0,1,3.83,1,2.25,2.25,0,0,1,1.45,1.92,1.44,1.44,0,0,1-.07.48,1.68,1.68,0,0,1-.63.84,1.32,1.32,0,0,0-.56,1V29.1q3.76-7.74,11.09-8.16h.33q3.7,0,6,5.4A32.59,32.59,0,0,1,260.1,39a35.7,35.7,0,0,1-1.39,10.38,11.94,11.94,0,0,1,.4,1.92,1.69,1.69,0,0,1-.46,1.17,4.37,4.37,0,0,1-1.19.9,6.58,6.58,0,0,1-1.62.6,7.85,7.85,0,0,1-1.81.21q-2.84,0-3.63-1.92a4.36,4.36,0,0,1-.33-1.32,1.8,1.8,0,0,1,.23-.81,7.18,7.18,0,0,1,.53-.87,7.16,7.16,0,0,0,.53-.87,1.81,1.81,0,0,0,.23-.81,38.83,38.83,0,0,0,.79-9q0-10.14-1.58-10.44Z" transform="translate(-0.59 -4.56)"/><path class="a" d="M285.51,52.38a31.11,31.11,0,0,1-1.06-4.68,15.7,15.7,0,0,1-5.74,6.24A15.43,15.43,0,0,1,270.07,57q-5.81,0-7.79-6.3a11.78,11.78,0,0,1-.53-3.3q0-4.32,4.16-7.56a34.41,34.41,0,0,1,8.78-4.68q3.37-1.38,5.31-2.25a23.89,23.89,0,0,0,2.61-1.29,7,7,0,0,0,.26-2q0-1.86-1.19-2.16a7.51,7.51,0,0,0-2.31-.36q-3,0-7.46,2.7a12.16,12.16,0,0,0-2.24,2,3.43,3.43,0,0,1-2.38,1.32h-.4A3.91,3.91,0,0,1,264,31.95a3.85,3.85,0,0,1-1.22-2.79,3.22,3.22,0,0,1,.53-1.74q1.25-1.86,6.73-4a38.16,38.16,0,0,1,13.73-2.52,6.05,6.05,0,0,1,6.07,3.84q1.12,2.64,1.58,9.66.33,4.32.66,7.44a43,43,0,0,0,.79,5.1A3.9,3.9,0,0,0,294,49a3.57,3.57,0,0,1,1,2.16,2,2,0,0,1,0,.36c0,.12-.06.26-.1.42Q294.09,55,290.59,55a5.67,5.67,0,0,1-2.71-.6A5.14,5.14,0,0,1,285.51,52.38Zm-14.32-8.1A3.64,3.64,0,0,0,269.54,47,2.89,2.89,0,0,0,270.3,49a2.39,2.39,0,0,0,1.88.87q2.77,0,6.07-3.42a21.35,21.35,0,0,0,5.15-9.3q-2.44,1.08-5,2.22a23.64,23.64,0,0,0-2.57,1.35,13.26,13.26,0,0,0-2,1.47A32.27,32.27,0,0,0,271.19,44.28Z" transform="translate(-0.59 -4.56)"/><path class="a" d="M303.27,56a5.1,5.1,0,0,1-3.76-1.38,3.38,3.38,0,0,1-.92-2.34,14.35,14.35,0,0,1,.13-1.56,15,15,0,0,0,.13-1.74V26.58a2.52,2.52,0,0,0-.53-1.32,2.48,2.48,0,0,1-.53-1.26,1.57,1.57,0,0,1,.26-.84q.86-1.44,5.35-1.44,3.5,0,4,1.5a3.87,3.87,0,0,1,.2,1,1.16,1.16,0,0,1-.53,1q-.53.36-.53.72l.13,2.16,5.68-5.46q1-1,2.08-2a4.12,4.12,0,0,1,2.54-1.14h.66a8,8,0,0,1,3.63.9q2.11,1.08,2.11,2.82a2,2,0,0,1-.07.6q-.33,1.32-2.51,1.74a7.54,7.54,0,0,0-3.37,1.38L306.63,38.22v9.12a5.19,5.19,0,0,0,.79,2.7,4.3,4.3,0,0,1,.86,2,3.36,3.36,0,0,1-.46,1.62Q306.7,56,303.27,56Z" transform="translate(-0.59 -4.56)"/><path class="a" d="M340,54.78a17.67,17.67,0,0,1-5.61,1.08h-.66q-4.88-.24-7.79-5.22a21.93,21.93,0,0,1-2.57-11,25.81,25.81,0,0,1,2.9-12.42q3.3-5.88,8.65-6.6l1-.09c.33,0,.67,0,1,0q7.85,0,8.65,8.76a2,2,0,0,0,0,.36,2,2,0,0,1,0,.36q0,3.6-3.56,8a22.15,22.15,0,0,1-10.82,7.32q.33,1.2.63,2a9.87,9.87,0,0,0,.5,1.14,2.73,2.73,0,0,0,2.51,1.5,7.64,7.64,0,0,0,5.21-2.82q.2-.06.53-1.32A2.44,2.44,0,0,1,342,44a2.21,2.21,0,0,1,.92-.18,4.47,4.47,0,0,1,3,1.44,3.56,3.56,0,0,1,1.25,2.4.92.92,0,0,1,0,.24.89.89,0,0,0,0,.24q-.53,2.28-3.56,4.86Q343.06,53.64,340,54.78ZM330.66,38v.72a3.64,3.64,0,0,0,.07.66,11.67,11.67,0,0,0,5.74-4.2q2.64-3.3,2.64-5.88A2.06,2.06,0,0,0,336.79,27q-2.64,0-4.29,3.42A17.19,17.19,0,0,0,330.66,38Z" transform="translate(-0.59 -4.56)"/></svg>