<svg xmlns="http://www.w3.org/2000/svg" viewBox="0 0 206.84 60.72"><defs><style>.a{fill:#cb1a14;}</style></defs><title>p_name_01</title><path class="a" d="M16.83,47.88A3.72,3.72,0,0,0,18,45.3q-.07-2.28-.1-3.87t0-2.49A61.11,61.11,0,0,1,9.5,40.38a6,6,0,0,0-1.78.9,2.8,2.8,0,0,1-1.58.54h-.2a6.16,6.16,0,0,1-3.56-2.16A5.82,5.82,0,0,1,.59,35.88a1.25,1.25,0,0,1,0-.27,1.29,1.29,0,0,0,0-.27,2.25,2.25,0,0,1,1.39-2A5.86,5.86,0,0,0,4,32.1l13.46-22a3.53,3.53,0,0,0,.33-1.68V8a3.19,3.19,0,0,1,.59-2.16,2.94,2.94,0,0,1,2.31-1q2.57,0,5.68,2.46t3.1,4.74a10.56,10.56,0,0,1-1.58,4,10.52,10.52,0,0,0-1.58,4.74V30.3a43.87,43.87,0,0,1,5.41-1.44h.26a5.87,5.87,0,0,1,3.63,1.32,4.21,4.21,0,0,1,2,3.36v.24a2.91,2.91,0,0,1-.4,1.47,4.06,4.06,0,0,1-1.06,1.2,5.46,5.46,0,0,1-1.48.81,4.88,4.88,0,0,1-1.68.3,6.83,6.83,0,0,1-1.32-.21,7.36,7.36,0,0,0-1.58-.21H30a7.82,7.82,0,0,1-1.42.15l-2.15.09q0,4.32,0,6.63t-.1,2.61a8.2,8.2,0,0,0,.86,3.18A8.58,8.58,0,0,1,28,52.62q0,2.1-3.76,3.72a2.39,2.39,0,0,1-1,.18,8.27,8.27,0,0,1-5.15-2.34Q15.71,52,15.71,50V49.5A4.66,4.66,0,0,1,16.83,47.88Zm1-16.14.4-9.36L12.28,32.82Z" transform="translate(-0.59 -4.86)"/><path class="a" d="M57.29,51.3a1.31,1.31,0,0,1,.4-1q.4-.36.79-.66-.2-13-.2-22.74t.2-15.9a2.51,2.51,0,0,1-.07-.54V9.9q0-3.12,4.16-3.12l.73,0,.86.09a6.67,6.67,0,0,1,2,.48l.3.24a6.25,6.25,0,0,1,.63.6q.66-.24,1.72-.54t2.51-.78q.66-.36,1.42-.81a4.91,4.91,0,0,1,2.41-.45,7.63,7.63,0,0,1,4.16,1.5,4.55,4.55,0,0,1,2.31,3.24v.18A3,3,0,0,1,79,13.68a43.07,43.07,0,0,1-4.95.36,1.2,1.2,0,0,0-.53.06L70,15.57q-1.49.63-2.41.93a55,55,0,0,0-.4,7.08q0,1.62.07,3.42t.2,3.78l1.09-.69,1.55-.93q1.45-1.62,2.51-1.62h.13a7.39,7.39,0,0,1,4.36,2,5,5,0,0,1,2.24,3.78,2.55,2.55,0,0,1-.4,1.44q-.66,1.32-3.63,1.44-3.23.06-4.42,1a4.81,4.81,0,0,0-1.75,1q-.83.75-1.55,1.47-.13,1-.2,2.25t-.07,2.61q0,1.38.07,3t.2,3.42a4.55,4.55,0,0,1,.33,1.5q0,1.86-2.31,3.06a4.62,4.62,0,0,1-2,.42,6.88,6.88,0,0,1-3.89-1.14,4.92,4.92,0,0,1-2.38-3.12Z" transform="translate(-0.59 -4.86)"/><path class="a" d="M89,56.46A4.09,4.09,0,0,1,85.4,54.9Q84,52.92,84,43.38V40.5q0-1.8.07-4.2t.1-4.2q0-1.74,0-2.88a9.72,9.72,0,0,0-.07-1L84,27q-.07-.6-.13-1.11a6.56,6.56,0,0,1-.07-.81,4.47,4.47,0,0,1,1.58-3.42,3.7,3.7,0,0,1,2.44-.6,12.92,12.92,0,0,1,3.56.51,4.21,4.21,0,0,1,2.24,1.17,2.12,2.12,0,0,1,.53,1.32,5.89,5.89,0,0,1-1.06,2.64,6.22,6.22,0,0,0-1,2.88V47.22a13.12,13.12,0,0,0,.73,3.42,13.08,13.08,0,0,1,.73,3,2,2,0,0,1-1.06,1.86A7,7,0,0,1,89,56.46ZM84.28,14.73a4,4,0,0,0,.46-1.23,2.22,2.22,0,0,1,0-.33,3.41,3.41,0,0,0,0-.51c0-.2,0-.43,0-.69s0-.55,0-.87v-.36a1.85,1.85,0,0,1,.66-1.68,7.07,7.07,0,0,1,3.76-.72q3,0,4.16,1.08a.78.78,0,0,1,.2.6,7.69,7.69,0,0,1-.4,1.86,16,16,0,0,0-.59,2.22V14a10.47,10.47,0,0,1,.13,2.7,1.64,1.64,0,0,1-.83,1.65,4.86,4.86,0,0,1-2.08.39,11.55,11.55,0,0,1-3.63-.66q-2.24-.78-2.24-2.22A2.79,2.79,0,0,1,84.28,14.73Z" transform="translate(-0.59 -4.86)"/><path class="a" d="M107.45,53.34a3.78,3.78,0,0,1-1.29,3.12,4.32,4.32,0,0,1-2.61.9A7.84,7.84,0,0,1,98.47,55q-.73-.6-.86-9.18v.9s.07-6.76.07-20.28A11.19,11.19,0,0,0,97.55,25a10.68,10.68,0,0,1-.13-1.35,3,3,0,0,1,.66-2,2.9,2.9,0,0,1,2.51-1.08,7.86,7.86,0,0,1,3.7,1,5.3,5.3,0,0,1,2.38,1.86,2.71,2.71,0,0,1,.26,1.2,4.23,4.23,0,0,1-.53,1.68,4.31,4.31,0,0,0-.53,1.8v8.28a72,72,0,0,1,6.27-10.62q3.56-4.14,8-4.14h.53q2.84.18,4,4.8a45.33,45.33,0,0,1,1,10.32v10.8a5.31,5.31,0,0,0,.92,1.5,2,2,0,0,1,.4,1.2v.3a3,3,0,0,1-1.91,2.25,8.42,8.42,0,0,1-4,.93q-3.24,0-4.42-1.86.07-2.1.1-4t0-3.48q0-11.1-1.32-11.28h-.07q-1.65,0-8,16.56Z" transform="translate(-0.59 -4.86)"/><path class="a" d="M145.86,65.58h-.66A13,13,0,0,1,137.28,63a17.19,17.19,0,0,1-2.51-.84,2.83,2.83,0,0,1-1.45-2,1.65,1.65,0,0,1-.07-.54q0-2.28,5-2.28a9.53,9.53,0,0,1,1.35.09l1.29.21a4.14,4.14,0,0,1,2,1.38A3.46,3.46,0,0,0,145,60.3h.07q1.85,0,1.85-4.92,0-1.14-.1-2.88t-.23-4.2A31.2,31.2,0,0,1,143.15,53a7.1,7.1,0,0,1-5.08,2.1q-4.16,0-6.6-5.22a26.6,26.6,0,0,1-2.31-11.52,25.26,25.26,0,0,1,2.44-11.76q2.77-5.4,7.66-5.52h.4a5.64,5.64,0,0,1,3.5,1,14.9,14.9,0,0,1,1.25,1l1.19,1.08a4,4,0,0,1-.4-1.56,2.09,2.09,0,0,1,.79-1.68,3.15,3.15,0,0,1,2.18-.66,6.4,6.4,0,0,1,2.77.66,3.34,3.34,0,0,1,1.78,1.62q.13,5.22.59,17,.13,4.2.2,7.17t.07,4.77q0,8-1.39,10.86t-5.61,3.18A4.16,4.16,0,0,1,145.86,65.58Zm-9.77-26.82a25.42,25.42,0,0,0,.59,5.7q.86,3.48,2.57,3.48,1.45,0,3.37-3.36a16.45,16.45,0,0,0,2.18-6.72,3.11,3.11,0,0,0,.07-.66v-.66a14.31,14.31,0,0,0-1-5.28q-1.25-3.48-3.43-3.48-1.78,0-3,3.48a19.19,19.19,0,0,0-1.32,6.6Z" transform="translate(-0.59 -4.86)"/><path class="a" d="M174,54.78a17.67,17.67,0,0,1-5.61,1.08h-.66q-4.88-.24-7.79-5.22a21.93,21.93,0,0,1-2.57-11,25.81,25.81,0,0,1,2.9-12.42q3.3-5.88,8.65-6.6l1-.09c.33,0,.67,0,1,0q7.85,0,8.65,8.76a2,2,0,0,0,0,.36,2,2,0,0,1,0,.36q0,3.6-3.56,8a22.15,22.15,0,0,1-10.82,7.32q.33,1.2.63,2a9.87,9.87,0,0,0,.5,1.14,2.73,2.73,0,0,0,2.51,1.5,7.64,7.64,0,0,0,5.21-2.82q.2-.06.53-1.32a2.44,2.44,0,0,1,1.39-1.8,2.21,2.21,0,0,1,.92-.18,4.47,4.47,0,0,1,3,1.44,3.56,3.56,0,0,1,1.25,2.4.92.92,0,0,1,0,.24.89.89,0,0,0,0,.24q-.53,2.28-3.56,4.86Q177.14,53.64,174,54.78ZM164.73,38v.72a3.64,3.64,0,0,0,.07.66,11.67,11.67,0,0,0,5.74-4.2q2.64-3.3,2.64-5.88A2.06,2.06,0,0,0,170.87,27q-2.64,0-4.29,3.42A17.19,17.19,0,0,0,164.73,38Z" transform="translate(-0.59 -4.86)"/><path class="a" d="M187.37,56a5.1,5.1,0,0,1-3.76-1.38,3.38,3.38,0,0,1-.92-2.34,14.35,14.35,0,0,1,.13-1.56,15,15,0,0,0,.13-1.74V26.58a2.52,2.52,0,0,0-.53-1.32,2.48,2.48,0,0,1-.53-1.26,1.57,1.57,0,0,1,.26-.84q.86-1.44,5.35-1.44,3.5,0,4,1.5a3.87,3.87,0,0,1,.2,1,1.16,1.16,0,0,1-.53,1q-.53.36-.53.72l.13,2.16,5.68-5.46q1-1,2.08-2A4.12,4.12,0,0,1,201,19.5h.66a8,8,0,0,1,3.63.9q2.11,1.08,2.11,2.82a2,2,0,0,1-.07.6q-.33,1.32-2.51,1.74a7.54,7.54,0,0,0-3.37,1.38L190.74,38.22v9.12a5.19,5.19,0,0,0,.79,2.7,4.3,4.3,0,0,1,.86,2,3.36,3.36,0,0,1-.46,1.62Q190.8,56,187.37,56Z" transform="translate(-0.59 -4.86)"/></svg>